<svg version="1.1" id="Layer_1" xmlns="http://www.w3.org/2000/svg" xmlns:xlink="http://www.w3.org/1999/xlink" x="0px" y="0px"
	 width="100%" viewBox="0 0 1024 1024" enable-background="new 0 0 1024 1024" xml:space="preserve">
<path fill="#000000" opacity="1.000000" stroke="none" 
	d="
M649.000000,580.937805 
	C636.431702,580.938049 624.363464,580.938049 612.671997,580.938049 
	C611.467041,577.934998 612.762268,576.399719 613.465027,574.794434 
	C617.672607,565.183716 622.103699,555.666809 626.111389,545.974365 
	C627.684204,542.170654 629.828491,540.766113 633.980164,540.778687 
	C674.137451,540.900513 714.295288,540.823303 754.453003,540.810974 
	C766.689514,540.807251 769.806030,537.688843 769.747986,525.440857 
	C769.740845,523.941223 769.730957,522.441223 769.688660,520.942322 
	C769.470642,513.219360 765.647217,509.389130 757.783264,509.375702 
	C730.122864,509.328461 702.462036,509.430939 674.801941,509.328735 
	C667.499451,509.301758 660.194458,509.872467 652.887024,508.481812 
	C631.367981,504.386566 616.443420,488.696472 613.801270,466.761475 
	C612.621948,456.970978 612.664307,447.138397 614.579285,437.435883 
	C619.269409,413.673370 636.984558,398.244598 661.196228,398.034943 
	C707.849182,397.630951 754.507507,397.839478 801.163574,397.813232 
	C802.129700,397.812683 803.096008,398.045868 803.858582,398.143890 
	C805.044495,399.735443 804.212524,400.920349 803.697021,402.107300 
	C799.252319,412.340607 794.603394,422.491150 790.431030,432.834045 
	C788.704468,437.114227 786.189270,438.305084 781.731140,438.284332 
	C744.073608,438.108765 706.414978,438.183411 668.756653,438.163147 
	C663.530823,438.160339 657.756348,437.676483 655.435181,443.608856 
	C652.646057,450.737091 651.807190,458.290131 656.187744,465.222260 
	C658.251282,468.487579 661.812439,469.685883 665.746399,469.673218 
	C696.571655,469.573975 727.397461,469.579010 758.222290,469.404236 
	C768.190002,469.347687 777.828308,470.398346 786.705994,475.364471 
	C800.952332,483.333862 808.260620,495.991943 810.080811,511.712097 
	C811.556396,524.455933 811.876160,537.335083 807.216248,549.706970 
	C800.284668,568.110107 786.342957,577.814453 767.426941,580.203003 
	C751.871582,582.167114 736.137756,580.795776 720.484924,580.896912 
	C696.824158,581.049622 673.161743,580.937256 649.000000,580.937805 
z"/>
<path fill="#000000" opacity="1.000000" stroke="none" 
	d="
M533.792358,495.651337 
	C533.122803,516.936707 533.256104,537.753967 533.646667,558.571960 
	C533.759155,564.565796 533.808044,570.561096 533.947083,576.554260 
	C534.019165,579.657104 532.710449,581.135315 529.496765,581.106873 
	C518.502502,581.009644 507.507050,580.961243 496.512573,581.009827 
	C491.767151,581.030823 491.835632,577.920105 491.836884,574.562622 
	C491.848877,542.409973 491.823059,510.257355 491.805908,478.104706 
	C491.800110,467.276123 491.609924,456.443359 491.861328,445.620850 
	C491.970856,440.905426 490.480988,439.208191 485.610229,439.266815 
	C466.288055,439.499481 446.961517,439.385864 427.636658,439.359131 
	C425.678223,439.356415 423.630554,439.795044 421.809753,438.699768 
	C421.108643,437.262146 421.823273,436.068756 422.361816,434.872559 
	C427.078705,424.394958 431.939819,413.979462 436.463684,403.419373 
	C438.005951,399.819214 440.082214,398.590729 444.015472,398.598633 
	C496.992126,398.705231 549.969116,398.639404 602.946045,398.616669 
	C606.523010,398.615112 610.100037,398.616486 614.520752,398.616486 
	C612.835938,402.497070 611.472717,405.632324 610.113342,408.769226 
	C606.406128,417.323547 602.571167,425.825897 599.056458,434.458618 
	C597.606323,438.020691 595.631104,439.501526 591.616455,439.452393 
	C574.459961,439.242249 557.299194,439.366913 540.140015,439.386353 
	C533.733521,439.393616 533.382568,439.668488 533.415344,446.220093 
	C533.496887,462.540985 533.679565,478.861359 533.792358,495.651337 
z"/>
<path fill="#000000" opacity="1.000000" stroke="none" 
	d="
M262.461914,503.451233 
	C246.829102,468.680328 231.359360,434.251465 215.885239,399.812805 
	C216.944733,399.160156 217.346710,398.698395 217.757217,398.690735 
	C230.910263,398.444366 244.064865,398.276733 257.217438,398.009399 
	C260.681030,397.938965 261.633606,400.428986 262.720398,402.886749 
	C270.735474,421.012268 278.721924,439.150513 286.763214,457.264404 
	C303.924530,495.922272 321.115936,534.566833 338.284851,573.221375 
	C339.214844,575.315186 340.621857,577.270691 340.406433,579.760193 
	C338.921906,581.367126 336.985840,580.898071 335.224609,580.903625 
	C324.392883,580.937805 313.558105,580.757935 302.730591,580.969788 
	C298.435211,581.053833 296.130371,579.454956 294.405701,575.507080 
	C283.938446,551.547241 273.243774,527.686890 262.461914,503.451233 
z"/>
<path fill="#000000" opacity="1.000000" stroke="none" 
	d="
M388.283173,478.195831 
	C375.813385,506.521576 363.469177,534.489014 351.227814,562.223450 
	C348.506653,562.068542 348.261200,560.394104 347.671753,559.090637 
	C341.498993,545.440674 335.414062,531.750305 329.131592,518.151184 
	C327.826141,515.325378 327.796143,512.941162 329.064972,510.111481 
	C339.211761,487.482574 349.239044,464.800140 359.306915,442.135864 
	C365.118561,429.052917 370.983002,415.993073 376.715240,402.875458 
	C377.869904,400.233185 379.201813,398.202484 382.401672,398.200104 
	C395.222198,398.190613 408.042755,398.156464 420.863251,398.175873 
	C421.470062,398.176819 422.076233,398.603333 423.557922,399.161163 
	C411.787506,425.507538 400.098145,451.672516 388.283173,478.195831 
z"/>
<path fill="#000000" opacity="1.000000" stroke="none" 
	d="
M313.053162,609.496704 
	C315.332458,609.489319 317.078552,609.825012 318.133636,611.681274 
	C322.567780,619.482239 326.070770,627.710510 329.907074,636.182373 
	C326.272156,637.634827 323.751617,637.828247 321.431030,634.447205 
	C318.761017,630.557068 308.472290,630.921448 305.612518,634.751404 
	C304.912292,635.689209 304.421570,637.014587 303.129089,636.981323 
	C296.050385,636.798889 288.340393,639.497253 282.739502,632.389038 
	C281.335541,630.607239 279.686981,628.861206 277.370422,627.919922 
	C275.417206,629.229919 276.303894,631.236633 276.188446,632.899231 
	C276.020111,635.324585 275.546600,637.154968 272.546722,637.143250 
	C269.401337,637.130920 268.643707,635.356018 268.657715,632.621582 
	C268.691010,626.122314 268.638245,619.622131 268.556976,613.123047 
	C268.529999,610.966064 269.180023,609.600952 271.593109,609.498718 
	C274.093048,609.392822 275.876495,610.066711 276.047729,612.927856 
	C276.156311,614.742493 276.288086,616.555847 276.433838,618.734131 
	C282.769318,616.284973 285.396637,606.443909 294.873138,610.126465 
	C292.398041,614.299316 288.912384,616.904724 285.831207,619.782593 
	C283.262878,622.181335 283.060913,623.891052 285.866119,626.161987 
	C289.481567,629.088806 292.886963,632.274963 296.617981,635.556335 
	C299.775879,632.349060 300.862579,628.284546 302.711273,624.687500 
	C304.690430,620.836670 306.483551,616.889587 308.328949,612.970886 
	C309.218018,611.082886 310.237427,609.410095 313.053162,609.496704 
M310.982391,624.342285 
	C312.545593,626.318848 314.250153,625.754517 316.085785,624.800964 
	C316.053864,622.606506 315.764038,620.768982 313.674194,619.773010 
	C311.953156,620.605469 311.542358,622.216248 310.982391,624.342285 
z"/>
<path fill="#000000" opacity="1.000000" stroke="none" 
	d="
M706.366089,622.324829 
	C706.529358,616.986023 706.505249,611.609863 712.401611,610.076965 
	C719.336365,608.274170 726.537598,607.418640 733.090881,611.681274 
	C735.154114,613.023315 735.978088,615.381104 736.070190,617.759888 
	C736.647766,632.673279 736.446045,637.967773 718.995361,637.294556 
	C708.928650,636.906311 706.250671,634.085999 706.366089,622.324829 
M722.286133,630.708313 
	C724.890808,630.746216 727.814148,630.580811 728.305908,627.539856 
	C728.869141,624.056335 730.225159,619.777100 727.080933,617.152344 
	C724.015686,614.593506 719.562866,614.462280 716.189636,616.549438 
	C712.193115,619.022217 714.014282,623.534790 714.368042,627.131226 
	C714.785950,631.379395 718.521057,630.569153 722.286133,630.708313 
z"/>
<path fill="#000000" opacity="1.000000" stroke="none" 
	d="
M767.725586,610.101807 
	C770.494751,618.301025 769.218201,626.453186 768.965820,634.513062 
	C768.864685,637.745178 763.436401,638.182922 760.483459,635.078125 
	C757.852417,632.311951 755.677002,629.117798 753.149109,626.245789 
	C751.895752,624.821716 751.076233,622.852356 748.216370,622.007935 
	C748.216370,625.904785 748.186035,629.503967 748.226562,633.102295 
	C748.256226,635.730286 747.207336,637.171753 744.395447,637.119507 
	C741.757996,637.070496 740.946106,635.523621 740.933472,633.230469 
	C740.899475,627.067810 740.854248,620.904846 740.877197,614.742310 
	C740.884460,612.799866 740.401001,610.436768 742.780945,609.529968 
	C745.315857,608.564026 747.691223,609.192078 749.547363,611.321716 
	C753.235474,615.553223 756.932007,619.777527 761.914368,623.735779 
	C761.914368,620.682434 762.020752,617.624512 761.887939,614.576965 
	C761.714844,610.603516 763.387390,608.986938 767.725586,610.101807 
z"/>
<path fill="#000000" opacity="1.000000" stroke="none" 
	d="
M571.206543,629.208984 
	C571.060486,628.630493 571.012939,628.469238 570.997253,628.305054 
	C569.383423,611.346069 575.889038,605.669678 592.631226,609.395386 
	C597.461243,610.470276 600.182556,613.299744 600.293762,618.364929 
	C600.351990,621.017639 600.421326,623.672668 600.374084,626.324646 
	C600.238464,633.945984 597.453735,636.896240 589.947815,637.226135 
	C586.804382,637.364380 583.623779,637.447876 580.503357,637.130737 
	C575.909729,636.663879 572.153625,634.846558 571.206543,629.208984 
M581.677856,616.064636 
	C578.517822,618.173767 576.888611,623.929993 578.748718,627.864990 
	C581.092346,632.822876 585.757996,630.662048 589.396729,630.502502 
	C593.914246,630.304443 592.477722,626.266907 592.777832,623.510071 
	C592.867126,622.689636 592.712280,621.844177 592.782898,621.019897 
	C593.120850,617.073853 590.827454,615.638428 587.384094,615.487488 
	C585.744812,615.415649 584.089355,615.713989 581.677856,616.064636 
z"/>
<path fill="#000000" opacity="1.000000" stroke="none" 
	d="
M543.276123,623.811462 
	C538.804688,615.936951 541.417236,610.143982 549.792419,609.203735 
	C553.888184,608.744019 558.089783,609.114746 562.237244,609.272522 
	C564.402161,609.354919 566.178406,610.176880 566.006531,612.871643 
	C565.835022,615.561218 563.944214,616.023804 561.801880,616.038147 
	C559.141296,616.056030 556.480103,615.947083 553.819153,615.945984 
	C552.029602,615.945251 550.143799,615.742676 548.921631,617.301453 
	C548.862305,619.432556 550.212708,619.643799 551.592163,619.688965 
	C554.251160,619.776062 556.920959,619.667847 559.571228,619.854492 
	C564.141235,620.176331 567.017822,622.394043 567.340332,627.265137 
	C567.678467,632.370850 565.794739,635.629333 561.150757,636.663757 
	C555.591980,637.901917 549.893311,637.230164 544.257141,637.019226 
	C542.111328,636.938904 541.700928,635.263611 541.773804,633.419739 
	C541.847778,631.549133 542.901855,630.763672 544.655212,630.745911 
	C548.480408,630.707031 552.305969,630.704468 556.130920,630.653320 
	C557.685425,630.632568 559.390381,630.453918 559.385376,628.440674 
	C559.380249,626.408875 557.627197,626.316406 556.101990,626.243347 
	C551.832825,626.038940 547.391907,626.860779 543.276123,623.811462 
z"/>
<path fill="#000000" opacity="1.000000" stroke="none" 
	d="
M774.975525,631.453735 
	C779.693420,630.085144 784.193542,630.943420 788.655457,630.671509 
	C790.329468,630.569458 792.361755,630.628845 792.452515,628.407288 
	C792.550903,625.998352 790.398071,626.257812 788.790588,626.143005 
	C785.978943,625.942200 783.141846,625.965820 780.353333,625.603577 
	C776.072388,625.047485 774.041626,622.250793 773.740479,618.117493 
	C773.435791,613.934570 775.276611,610.991699 779.296509,609.740845 
	C784.664429,608.070557 790.165161,608.848938 795.620544,609.263123 
	C797.923340,609.437988 798.636536,611.026917 798.570618,613.097778 
	C798.497498,615.397034 796.848389,615.703918 795.088074,615.686035 
	C791.938660,615.654053 788.790283,615.482544 785.640991,615.464600 
	C783.994263,615.455200 781.847412,615.361572 781.679810,617.504700 
	C781.489441,619.937012 783.752075,619.610901 785.333191,619.683533 
	C787.656189,619.790344 789.998413,619.609619 792.309753,619.811340 
	C797.495972,620.264038 800.261353,623.250610 800.284607,628.186340 
	C800.308228,633.201721 797.689880,636.572693 792.684387,636.988770 
	C787.896545,637.386719 783.051453,637.203735 778.234680,637.112305 
	C774.671204,637.044800 773.553528,635.101562 774.975525,631.453735 
z"/>
<path fill="#000000" opacity="1.000000" stroke="none" 
	d="
M351.927643,636.517639 
	C346.264587,637.871582 340.932800,637.081909 335.628876,637.126160 
	C333.266174,637.145874 331.808746,635.956665 331.956573,633.443787 
	C332.103851,630.941284 333.964111,630.736633 335.911560,630.731140 
	C339.406372,630.721313 342.901398,630.713684 346.395782,630.664917 
	C347.993011,630.642639 349.587341,630.277100 349.562958,628.310120 
	C349.536804,626.194946 347.733643,626.272339 346.245300,626.224121 
	C344.083862,626.154053 341.908417,626.304321 339.758667,626.124817 
	C334.644989,625.697571 331.976288,623.042725 331.714722,618.333557 
	C331.441437,613.413696 333.533905,610.637329 338.611755,609.531555 
	C343.393829,608.490234 348.205231,608.949219 353.010712,609.550903 
	C355.219116,609.827515 356.274139,610.883057 356.160400,613.155029 
	C356.051880,615.323120 354.701263,616.003113 352.848694,616.044983 
	C350.021210,616.108948 347.188721,616.009033 344.364014,616.120728 
	C342.642426,616.188782 340.614807,615.560425 339.518890,617.617920 
	C339.486420,619.259521 340.559723,619.640015 341.806030,619.688477 
	C344.133057,619.779114 346.463226,619.811035 348.792297,619.823608 
	C353.311981,619.848145 356.547180,621.646362 357.539673,626.325195 
	C358.541779,631.049438 356.798370,634.445251 351.927643,636.517639 
z"/>
<path fill="#000000" opacity="1.000000" stroke="none" 
	d="
M448.536133,626.271790 
	C446.434479,626.397705 445.049896,626.901489 445.412231,628.956299 
	C445.721588,630.710449 447.241272,630.649719 448.564392,630.670166 
	C451.725830,630.718994 454.888275,630.732056 458.050110,630.715881 
	C460.136383,630.705139 461.656647,631.282654 461.695099,633.733032 
	C461.732422,636.112000 460.328491,636.989929 458.221313,637.011414 
	C452.564392,637.069092 446.906860,637.079407 441.249573,637.086914 
	C438.752960,637.090271 437.694366,635.749146 437.706207,633.314697 
	C437.738586,626.657959 437.750793,620.000610 437.703644,613.344055 
	C437.685852,610.829773 438.838470,609.686096 441.315094,609.687378 
	C446.806641,609.690308 452.298187,609.652405 457.789734,609.637085 
	C459.930084,609.631165 461.233978,610.454041 461.293640,612.838379 
	C461.362823,615.603271 459.701080,616.072327 457.450897,616.229431 
	C453.458160,616.508240 449.288574,615.385498 445.536926,616.990540 
	C445.460846,619.561218 446.865509,619.701233 448.221832,619.738892 
	C450.716370,619.808289 453.213776,619.768127 455.709808,619.791992 
	C457.917175,619.813049 460.154510,619.676941 460.265656,622.920105 
	C460.377472,626.182129 458.230255,626.227173 455.953552,626.234253 
	C453.623566,626.241577 451.293610,626.248840 448.536133,626.271790 
z"/>
<path fill="#000000" opacity="1.000000" stroke="none" 
	d="
M523.922729,615.322144 
	C523.920593,621.445068 523.935547,627.106506 523.898560,632.767700 
	C523.881409,635.397949 523.113403,637.304077 519.872620,637.153870 
	C516.829102,637.012817 516.519226,635.159363 516.510620,632.742249 
	C516.502686,630.497375 517.220520,627.412476 514.455017,626.652344 
	C511.156219,625.745544 507.396423,625.399414 504.195526,626.952759 
	C502.187927,627.926941 503.249146,630.593811 503.000977,632.509399 
	C502.767792,634.309326 502.965759,636.400879 500.605255,636.909241 
	C497.668976,637.541626 495.683960,636.725586 495.700012,633.218811 
	C495.729736,626.724731 495.684540,620.230286 495.666473,613.736023 
	C495.660675,611.649231 495.683441,609.705139 498.590149,609.507935 
	C501.361389,609.319946 502.965424,610.685730 502.755798,613.186523 
	C502.181274,620.041626 506.388123,619.953003 511.274353,619.837341 
	C514.919189,619.751038 517.027710,618.950562 516.649292,614.779663 
	C516.427246,612.331787 516.139587,609.571167 519.987732,609.414307 
	C524.160278,609.244324 523.745300,612.228699 523.922729,615.322144 
z"/>
<path fill="#000000" opacity="1.000000" stroke="none" 
	d="
M374.186829,619.808228 
	C381.673950,619.773438 381.749695,619.783020 382.608643,612.977051 
	C382.890564,610.743286 383.808899,609.718201 386.063354,609.694214 
	C388.260406,609.670898 389.684998,610.567810 389.716492,612.800049 
	C389.817078,619.935669 389.848389,627.073730 389.773865,634.209534 
	C389.749908,636.503296 388.161621,637.222778 386.016449,637.172363 
	C383.390076,637.110535 382.555084,635.619080 382.642792,633.287292 
	C382.816986,628.657959 381.686371,625.970703 375.964447,626.092834 
	C370.774506,626.203613 368.566467,627.616333 369.197266,632.900574 
	C369.478577,635.257263 368.819977,637.121826 365.769318,637.202820 
	C362.563385,637.287964 361.806213,635.572266 361.818848,632.842773 
	C361.848114,626.530396 361.803986,620.217529 361.772552,613.904968 
	C361.760376,611.458496 362.389130,609.731445 365.347046,609.640442 
	C368.551178,609.541870 369.365845,611.277466 369.259888,614.008545 
	C369.136780,617.181335 369.154999,620.267090 374.186829,619.808228 
z"/>
<path fill="#000000" opacity="1.000000" stroke="none" 
	d="
M637.362244,636.066528 
	C634.167603,634.533081 632.984802,632.247131 632.589050,629.160156 
	C631.907654,623.844299 632.007812,618.525269 631.915771,613.198608 
	C631.866760,610.365784 633.320618,609.331421 635.913269,609.328003 
	C638.515747,609.324646 639.355469,610.790894 639.334351,613.172241 
	C639.298889,617.170715 639.409485,621.170593 639.370667,625.168945 
	C639.320007,630.394348 642.656372,630.836121 646.751404,630.851196 
	C650.950745,630.866699 652.926514,629.298889 652.719727,624.936951 
	C652.530701,620.947510 652.762634,616.940002 652.703430,612.941956 
	C652.664734,610.332764 654.078857,609.364868 656.414856,609.339600 
	C658.581665,609.316162 659.994568,610.371277 659.989502,612.605347 
	C659.976685,618.260742 660.070190,623.933960 659.653015,629.565308 
	C659.327637,633.957642 656.256470,636.527222 652.084717,636.989197 
	C647.319946,637.516785 642.442383,637.950684 637.362244,636.066528 
z"/>
<path fill="#000000" opacity="1.000000" stroke="none" 
	d="
M465.425629,617.815613 
	C465.923340,612.720337 468.713715,610.296204 473.117493,609.484009 
	C478.064575,608.571533 483.049103,608.929749 488.019409,609.229858 
	C490.161224,609.359253 491.269958,610.515137 491.234497,612.804871 
	C491.196259,615.276428 489.709961,615.943665 487.666412,615.933594 
	C484.511719,615.917847 481.357849,615.754211 478.203033,615.727722 
	C473.571869,615.688843 472.317413,618.537537 472.311615,622.579773 
	C472.303528,628.206726 473.761902,630.445435 478.088287,630.643738 
	C481.236542,630.788086 484.399017,630.636047 487.554871,630.593689 
	C489.516693,630.567322 491.204834,630.712646 491.307281,633.361572 
	C491.401917,635.809082 490.561157,637.209167 487.979950,637.202332 
	C483.496307,637.190552 478.988281,637.444397 474.535828,637.060730 
	C469.796692,636.652283 466.600220,634.053894 465.602753,629.100403 
	C464.872406,625.473389 464.540863,621.877136 465.425629,617.815613 
z"/>
<path fill="#000000" opacity="1.000000" stroke="none" 
	d="
M233.345123,635.872192 
	C229.238571,627.359009 225.400635,619.132019 221.501877,610.774719 
	C226.528412,608.589905 229.272430,609.930420 230.967148,614.067383 
	C232.649002,618.172974 234.452255,622.228821 236.500122,627.000427 
	C240.344971,622.658081 241.634109,617.990540 243.517990,613.700073 
	C245.307617,609.624268 247.905075,608.734253 252.577026,610.879089 
	C248.759460,619.111511 245.251846,627.313354 241.144043,635.202637 
	C239.618088,638.133423 236.372360,637.641235 233.345123,635.872192 
z"/>
<path fill="#000000" opacity="1.000000" stroke="none" 
	d="
M689.814087,610.013550 
	C692.204407,614.467346 690.480042,616.369019 686.227173,616.089233 
	C681.827087,615.799805 680.791687,617.935242 680.989563,621.806824 
	C681.184692,625.625366 680.999268,629.465637 680.919922,633.295105 
	C680.865173,635.934570 679.529846,637.204285 676.804626,637.105713 
	C674.116516,637.008362 673.501221,635.475891 673.554260,633.139709 
	C673.641235,629.309998 673.368835,625.459961 673.663452,621.650574 
	C673.976379,617.605042 672.654480,615.679138 668.399231,616.097229 
	C666.956665,616.238953 665.336853,616.375977 664.111328,615.261169 
	C663.011414,614.260559 662.998901,612.876343 663.214478,611.541443 
	C663.516785,609.669983 665.032959,609.180603 666.567261,609.185608 
	C674.205383,609.210632 681.869080,608.372070 689.814087,610.013550 
z"/>
<path fill="#000000" opacity="1.000000" stroke="none" 
	d="
M424.100281,620.360840 
	C424.094452,624.807678 424.083832,628.799744 424.103088,632.791748 
	C424.115326,635.333435 423.178467,636.931824 420.356598,636.962952 
	C417.482422,636.994690 416.649994,635.391235 416.682220,632.827209 
	C416.732361,628.835876 416.512115,624.835266 416.710144,620.853699 
	C416.879700,617.443970 415.660767,615.944641 412.151978,616.106506 
	C409.724976,616.218384 406.809631,616.553162 406.860046,612.668091 
	C406.905182,609.189209 409.679993,609.317505 411.883606,609.251404 
	C417.699036,609.076843 423.523438,609.116516 429.342621,609.194458 
	C431.561035,609.224243 433.847534,609.557129 433.903961,612.580872 
	C433.965881,615.899109 431.661072,616.202393 429.143433,616.170349 
	C426.518799,616.136963 423.934845,616.165161 424.100281,620.360840 
z"/>
<path fill="#000000" opacity="1.000000" stroke="none" 
	d="
M605.738403,626.957825 
	C605.727478,622.139221 605.739624,617.812012 605.698669,613.485291 
	C605.676453,611.137085 606.462158,609.699951 609.110229,609.641785 
	C611.816040,609.582336 613.175232,610.743469 613.189758,613.440063 
	C613.212158,617.600220 613.397339,621.770508 613.171448,625.917847 
	C612.964233,629.722046 614.594421,631.021851 618.184387,630.678040 
	C620.664185,630.440552 623.165955,630.402100 625.659485,630.347168 
	C627.704468,630.302185 629.189087,630.888672 629.304321,633.376709 
	C629.420471,635.883667 628.462524,637.144409 625.910645,637.154053 
	C621.084595,637.172363 616.246582,637.022766 611.436157,637.314331 
	C606.989075,637.583862 605.350464,635.659790 605.734131,631.441895 
	C605.854248,630.121826 605.744080,628.780884 605.738403,626.957825 
z"/>
<path fill="#000000" opacity="1.000000" stroke="none" 
	d="
M701.273315,612.456543 
	C701.320129,619.220093 701.376465,625.530884 701.321411,631.840698 
	C701.300720,634.210205 702.005737,637.121033 698.036499,637.222839 
	C694.381104,637.316467 694.145569,634.833984 694.112793,632.213806 
	C694.033813,625.904236 694.006958,619.593994 693.969238,613.283997 
	C693.958801,611.542053 694.160095,609.806824 696.276245,609.445190 
	C698.485168,609.067688 700.710144,608.976929 701.273315,612.456543 
z"/>
<path fill="#000000" opacity="1.000000" stroke="none" 
	d="
M263.081421,617.175049 
	C263.054596,622.778931 263.029144,627.906250 263.015503,633.033630 
	C263.008728,635.586304 261.983124,637.091370 259.197937,637.091919 
	C256.245361,637.092529 255.660065,635.319763 255.677765,632.860168 
	C255.720627,626.905640 255.659042,620.950256 255.714203,614.995911 
	C255.736465,612.593994 255.161865,609.745361 259.080872,609.697266 
	C262.655060,609.653442 262.916870,612.119202 263.078278,614.714050 
	C263.119263,615.373169 263.086517,616.036926 263.081421,617.175049 
z"/>
</svg>