<svg width="44" height="44" viewBox="0 0 44 44" fill="none" xmlns="http://www.w3.org/2000/svg">
<path d="M22.0072 0C12.8224 0 10.1362 0.00947891 9.61403 0.0527999C7.72916 0.20952 6.55628 0.506381 5.27847 1.14272C4.29375 1.63186 3.51712 2.19882 2.75064 2.9936C1.35476 4.44302 0.508763 6.22618 0.202507 8.34581C0.0536189 9.37482 0.0102976 9.58467 0.00150039 14.8408C-0.00187549 16.5928 0.00150039 18.8986 0.00150039 21.9914C0.00150039 31.1712 0.0116446 33.8554 0.0556474 34.3767C0.207928 36.2113 0.495558 37.3656 1.10468 38.6282C2.26877 41.045 4.49203 42.8593 7.11124 43.5363C8.01815 43.7698 9.01981 43.8984 10.3057 43.9594C10.8505 43.9831 16.4036 44 21.9601 44C27.5166 44 33.0731 43.9932 33.6044 43.9661C35.0934 43.8961 35.958 43.78 36.9139 43.5329C39.5501 42.8525 41.7327 41.0653 42.9205 38.6146C43.5178 37.3825 43.8206 36.1842 43.9577 34.4454C43.9875 34.0663 44 28.0219 44 21.9856C44 15.9483 43.9865 9.91504 43.9567 9.53593C43.8179 7.76902 43.5151 6.58093 42.8985 5.32512C42.3926 4.29712 41.8309 3.52942 41.0153 2.74449C39.5599 1.35396 37.7799 0.507728 35.6588 0.201738C34.6311 0.0531327 34.4264 0.00912983 29.1677 0H22.0072Z" fill="url(#paint0_radial_1424_3522)"/>
<path d="M22.0072 0C12.8224 0 10.1362 0.00947891 9.61403 0.0527999C7.72916 0.20952 6.55628 0.506381 5.27847 1.14272C4.29375 1.63186 3.51712 2.19882 2.75064 2.9936C1.35476 4.44302 0.508763 6.22618 0.202507 8.34581C0.0536189 9.37482 0.0102976 9.58467 0.00150039 14.8408C-0.00187549 16.5928 0.00150039 18.8986 0.00150039 21.9914C0.00150039 31.1712 0.0116446 33.8554 0.0556474 34.3767C0.207928 36.2113 0.495558 37.3656 1.10468 38.6282C2.26877 41.045 4.49203 42.8593 7.11124 43.5363C8.01815 43.7698 9.01981 43.8984 10.3057 43.9594C10.8505 43.9831 16.4036 44 21.9601 44C27.5166 44 33.0731 43.9932 33.6044 43.9661C35.0934 43.8961 35.958 43.78 36.9139 43.5329C39.5501 42.8525 41.7327 41.0653 42.9205 38.6146C43.5178 37.3825 43.8206 36.1842 43.9577 34.4454C43.9875 34.0663 44 28.0219 44 21.9856C44 15.9483 43.9865 9.91504 43.9567 9.53593C43.8179 7.76902 43.5151 6.58093 42.8985 5.32512C42.3926 4.29712 41.8309 3.52942 41.0153 2.74449C39.5599 1.35396 37.7799 0.507728 35.6588 0.201738C34.6311 0.0531327 34.4264 0.00912983 29.1677 0H22.0072Z" fill="url(#paint1_radial_1424_3522)"/>
<path d="M22.0072 0C12.8224 0 10.1362 0.00947891 9.61403 0.0527999C7.72916 0.20952 6.55628 0.506381 5.27847 1.14272C4.29375 1.63186 3.51712 2.19882 2.75064 2.9936C1.35476 4.44302 0.508763 6.22618 0.202507 8.34581C0.0536189 9.37482 0.0102976 9.58467 0.00150039 14.8408C-0.00187549 16.5928 0.00150039 18.8986 0.00150039 21.9914C0.00150039 31.1712 0.0116446 33.8554 0.0556474 34.3767C0.207928 36.2113 0.495558 37.3656 1.10468 38.6282C2.26877 41.045 4.49203 42.8593 7.11124 43.5363C8.01815 43.7698 9.01981 43.8984 10.3057 43.9594C10.8505 43.9831 16.4036 44 21.9601 44C27.5166 44 33.0731 43.9932 33.6044 43.9661C35.0934 43.8961 35.958 43.78 36.9139 43.5329C39.5501 42.8525 41.7327 41.0653 42.9205 38.6146C43.5178 37.3825 43.8206 36.1842 43.9577 34.4454C43.9875 34.0663 44 28.0219 44 21.9856C44 15.9483 43.9865 9.91504 43.9567 9.53593C43.8179 7.76902 43.5151 6.58093 42.8985 5.32512C42.3926 4.29712 41.8309 3.52942 41.0153 2.74449C39.5599 1.35396 37.7799 0.507728 35.6588 0.201738C34.6311 0.0531327 34.4264 0.00912983 29.1677 0H22.0072Z" fill="url(#paint2_radial_1424_3522)"/>
<path d="M22.0072 0C12.8224 0 10.1362 0.00947891 9.61403 0.0527999C7.72916 0.20952 6.55628 0.506381 5.27847 1.14272C4.29375 1.63186 3.51712 2.19882 2.75064 2.9936C1.35476 4.44302 0.508763 6.22618 0.202507 8.34581C0.0536189 9.37482 0.0102976 9.58467 0.00150039 14.8408C-0.00187549 16.5928 0.00150039 18.8986 0.00150039 21.9914C0.00150039 31.1712 0.0116446 33.8554 0.0556474 34.3767C0.207928 36.2113 0.495558 37.3656 1.10468 38.6282C2.26877 41.045 4.49203 42.8593 7.11124 43.5363C8.01815 43.7698 9.01981 43.8984 10.3057 43.9594C10.8505 43.9831 16.4036 44 21.9601 44C27.5166 44 33.0731 43.9932 33.6044 43.9661C35.0934 43.8961 35.958 43.78 36.9139 43.5329C39.5501 42.8525 41.7327 41.0653 42.9205 38.6146C43.5178 37.3825 43.8206 36.1842 43.9577 34.4454C43.9875 34.0663 44 28.0219 44 21.9856C44 15.9483 43.9865 9.91504 43.9567 9.53593C43.8179 7.76902 43.5151 6.58093 42.8985 5.32512C42.3926 4.29712 41.8309 3.52942 41.0153 2.74449C39.5599 1.35396 37.7799 0.507728 35.6588 0.201738C34.6311 0.0531327 34.4264 0.00912983 29.1677 0H22.0072Z" fill="url(#paint3_radial_1424_3522)"/>
<path d="M22.0093 5.65088C17.5664 5.65088 17.0088 5.67029 15.2637 5.74964C13.5221 5.82933 12.3333 6.10486 11.2931 6.50913C10.2172 6.92666 9.30444 7.48519 8.39513 8.39417C7.48515 9.30283 6.92618 10.2149 6.50697 11.2897C6.10139 12.3295 5.82531 13.5177 5.74694 15.2574C5.66889 17.0011 5.64844 17.5586 5.64844 21.9983C5.64844 26.4379 5.66821 26.9934 5.74727 28.7371C5.82738 30.4774 6.1031 31.6653 6.50731 32.7048C6.9255 33.78 7.48445 34.692 8.3941 35.6006C9.3031 36.51 10.2158 37.0699 11.2911 37.4874C12.332 37.8917 13.5211 38.1672 15.2624 38.2469C17.0074 38.3262 17.5646 38.3456 22.0073 38.3456C26.4506 38.3456 27.0065 38.3262 28.7515 38.2469C30.4931 38.1672 31.6833 37.8917 32.7241 37.4874C33.7998 37.0699 34.7111 36.51 35.6201 35.6006C36.5301 34.692 37.0891 33.78 37.5083 32.7051C37.9104 31.6653 38.1865 30.4771 38.2683 28.7375C38.3467 26.9938 38.3671 26.4379 38.3671 21.9983C38.3671 17.5586 38.3467 17.0014 38.2683 15.2577C38.1865 13.5174 37.9104 12.3295 37.5083 11.2901C37.0891 10.2149 36.5301 9.30281 35.6201 8.39417C34.7101 7.48484 33.8001 6.92631 32.7231 6.50912C31.6802 6.10486 30.4907 5.82933 28.7491 5.74964C27.0041 5.67029 26.4485 5.65088 22.0042 5.65088H22.0093ZM20.5417 8.59682C20.9773 8.59614 21.4633 8.59682 22.0093 8.59682C26.3773 8.59682 26.895 8.61248 28.6199 8.69081C30.215 8.7637 31.0807 9.03001 31.6574 9.25377C32.4208 9.55006 32.9651 9.90426 33.5373 10.4764C34.1099 11.0486 34.4644 11.5935 34.7616 12.3564C34.9855 12.9319 35.2524 13.797 35.3249 15.3909C35.4033 17.1141 35.4204 17.6318 35.4204 21.9945C35.4204 26.3572 35.4033 26.8749 35.3249 28.5982C35.252 30.192 34.9855 31.0571 34.7616 31.6327C34.4651 32.3955 34.1099 32.9388 33.5373 33.5106C32.9648 34.0827 32.4211 34.4369 31.6574 34.7332C31.0814 34.958 30.215 35.2236 28.6199 35.2965C26.8954 35.3748 26.3773 35.3919 22.0093 35.3919C17.641 35.3919 17.1233 35.3748 15.3987 35.2965C13.8037 35.223 12.938 34.9566 12.361 34.7329C11.5975 34.4366 11.0522 34.0824 10.4796 33.5102C9.90703 32.9381 9.55258 32.3945 9.25537 31.6313C9.03145 31.0557 8.76459 30.1907 8.692 28.5968C8.6136 26.8735 8.59792 26.3559 8.59792 21.9904C8.59792 17.625 8.6136 17.11 8.692 15.3868C8.76494 13.7929 9.03145 12.9278 9.25537 12.3516C9.55188 11.5887 9.90703 11.0438 10.4796 10.4717C11.0522 9.89949 11.5975 9.54531 12.361 9.24833C12.9376 9.02354 13.8037 8.75791 15.3987 8.68468C16.9079 8.61656 17.4927 8.59614 20.5417 8.59271L20.5417 8.59682ZM30.7419 11.3112C29.6581 11.3112 28.7787 12.1888 28.7787 13.2722C28.7787 14.3552 29.6581 15.2339 30.7419 15.2339C31.8257 15.2339 32.7051 14.3552 32.7051 13.2722C32.7051 12.1891 31.8257 11.3105 30.7419 11.3105L30.7419 11.3112ZM22.0093 13.6032C17.3697 13.6032 13.608 17.3621 13.608 21.9983C13.608 26.6344 17.3697 30.3916 22.0093 30.3916C26.649 30.3916 30.4093 26.6344 30.4093 21.9983C30.4093 17.3621 26.6486 13.6032 22.009 13.6032H22.0093ZM22.0093 16.5491C25.0208 16.5491 27.4625 18.9886 27.4625 21.9983C27.4625 25.0075 25.0208 27.4474 22.0093 27.4474C18.9975 27.4474 16.5562 25.0075 16.5562 21.9983C16.5562 18.9886 18.9975 16.5491 22.0093 16.5491Z" fill="white"/>
<defs>
<radialGradient id="paint0_radial_1424_3522" cx="0" cy="0" r="1" gradientTransform="matrix(-27.058 7.63099 -5.49785 -19.494 42.5792 20.6233)" gradientUnits="userSpaceOnUse">
<stop stop-color="#FF005F"/>
<stop offset="1" stop-color="#FC01D8"/>
</radialGradient>
<radialGradient id="paint1_radial_1424_3522" cx="0" cy="0" r="1" gradientUnits="userSpaceOnUse" gradientTransform="translate(11.6872 47.3889) rotate(-90) scale(35.1216 37.2633)">
<stop stop-color="#FFCC00"/>
<stop offset="0.1242" stop-color="#FFCC00"/>
<stop offset="0.5672" stop-color="#FE4A05"/>
<stop offset="0.6942" stop-color="#FF0F3F"/>
<stop offset="1" stop-color="#FE0657" stop-opacity="0"/>
</radialGradient>
<radialGradient id="paint2_radial_1424_3522" cx="0" cy="0" r="1" gradientTransform="matrix(7.29 -12.5609 16.3529 9.4908 23.1119 43.3795)" gradientUnits="userSpaceOnUse">
<stop stop-color="#FFCC00"/>
<stop offset="1" stop-color="#FFCC00" stop-opacity="0"/>
</radialGradient>
<radialGradient id="paint3_radial_1424_3522" cx="0" cy="0" r="1" gradientTransform="matrix(-26.761 7.53544 -2.56666 -9.11763 5.96986 1.79167)" gradientUnits="userSpaceOnUse">
<stop stop-color="#780CFF"/>
<stop offset="1" stop-color="#820BFF" stop-opacity="0"/>
</radialGradient>
</defs>
</svg>
