<svg width="12" height="14" viewBox="0 0 12 14" fill="none" xmlns="http://www.w3.org/2000/svg">
<path d="M4.9083 0.165345C4.95869 0.112906 5.01891 0.071258 5.08539 0.0428597C5.15188 0.0144615 5.22329 -0.000111777 5.29541 6.45511e-07C5.36754 0.000113068 5.4389 0.0149088 5.5053 0.0435142C5.57171 0.0721196 5.6318 0.113955 5.68203 0.166551L11.8315 6.57937C11.9396 6.69199 12 6.84304 12 7.0003C12 7.15757 11.9396 7.30861 11.8315 7.42123L5.68203 13.8341C5.63172 13.8866 5.57156 13.9283 5.50512 13.9568C5.43867 13.9853 5.36728 14 5.29516 14C5.22304 14 5.15165 13.9853 5.08521 13.9568C5.01876 13.9283 4.95861 13.8866 4.9083 13.8341C4.80478 13.7264 4.74683 13.5818 4.74683 13.4312C4.74683 13.2807 4.80478 13.1361 4.9083 13.0284L10.6911 7.0003L4.9083 0.969812C4.80514 0.86217 4.74741 0.717844 4.74741 0.567579C4.74741 0.417314 4.80514 0.272987 4.9083 0.165345ZM0.161469 0.165345C0.21186 0.112906 0.272077 0.071258 0.338565 0.0428597C0.405053 0.0144615 0.476465 -0.000111777 0.548586 6.45511e-07C0.620707 0.000113068 0.692075 0.0149088 0.758477 0.0435142C0.824879 0.0721196 0.88497 0.113955 0.935202 0.166551L7.08472 6.57937C7.19272 6.69199 7.25317 6.84304 7.25317 7.0003C7.25317 7.15757 7.19272 7.30861 7.08472 7.42123L0.935202 13.8341C0.88489 13.8866 0.824737 13.9283 0.758291 13.9568C0.691846 13.9853 0.620456 14 0.548336 14C0.476215 14 0.404825 13.9853 0.33838 13.9568C0.271935 13.9283 0.211781 13.8866 0.161469 13.8341C0.0579531 13.7264 0 13.5818 0 13.4312C0 13.2807 0.0579531 13.1361 0.161469 13.0284L5.94429 7.0003L0.161469 0.969812C0.0583083 0.86217 0.000578881 0.717844 0.000578881 0.567579C0.000578881 0.417314 0.0583083 0.272987 0.161469 0.165345Z" fill="black"/>
</svg>
