<svg width="52" height="52" viewBox="0 0 52 52" fill="none" xmlns="http://www.w3.org/2000/svg">
<g filter="url(#filter0_d_1799_2783)">
<path fill-rule="evenodd" clip-rule="evenodd" d="M2 24C2 11.8494 11.8494 2 24 2C36.1506 2 46 11.8494 46 24C46 36.1506 36.1506 46 24 46C11.8494 46 2 36.1506 2 24ZM20.7 18.5C20.6995 17.9571 20.833 17.4225 21.0886 16.9435C21.3442 16.4645 21.714 16.056 22.1652 15.7542C22.6165 15.4523 23.1352 15.2665 23.6755 15.2131C24.2158 15.1597 24.7609 15.2404 25.2625 15.4481C25.7641 15.6558 26.2067 15.9841 26.5511 16.4038C26.8954 16.8234 27.131 17.3216 27.2367 17.8541C27.3425 18.3866 27.3153 18.937 27.1575 19.4564C26.9997 19.9759 26.7161 20.4484 26.332 20.832L17.9104 29.258C16.8796 30.2891 16.3003 31.6874 16.3 33.1454V35C16.3 35.5835 16.5318 36.1431 16.9444 36.5556C17.3569 36.9682 17.9165 37.2 18.5 37.2H29.5C30.0835 37.2 30.6431 36.9682 31.0556 36.5556C31.4682 36.1431 31.7 35.5835 31.7 35C31.7 34.4165 31.4682 33.8569 31.0556 33.4444C30.6431 33.0318 30.0835 32.8 29.5 32.8H20.755C20.8087 32.6367 20.8998 32.4883 21.0212 32.3666L29.445 23.945C30.3403 23.0496 31.001 21.9472 31.3685 20.7355C31.736 19.5238 31.7991 18.2401 31.552 16.9982C31.305 15.7563 30.7555 14.5945 29.9522 13.6157C29.1489 12.6369 28.1166 11.8713 26.9467 11.3867C25.7769 10.9021 24.5056 10.7135 23.2455 10.8376C21.9853 10.9617 20.7752 11.3946 19.7224 12.0981C18.6695 12.8015 17.8064 13.7537 17.2094 14.8704C16.6125 15.9871 16.3001 17.2338 16.3 18.5C16.3 19.0835 16.5318 19.6431 16.9444 20.0556C17.3569 20.4682 17.9165 20.7 18.5 20.7C19.0835 20.7 19.6431 20.4682 20.0556 20.0556C20.4682 19.6431 20.7 19.0835 20.7 18.5Z" fill="url(#paint0_linear_1799_2783)"/>
</g>
<defs>
<filter id="filter0_d_1799_2783" x="0" y="0" width="52" height="52" filterUnits="userSpaceOnUse" color-interpolation-filters="sRGB">
<feFlood flood-opacity="0" result="BackgroundImageFix"/>
<feColorMatrix in="SourceAlpha" type="matrix" values="0 0 0 0 0 0 0 0 0 0 0 0 0 0 0 0 0 0 127 0" result="hardAlpha"/>
<feOffset dx="2" dy="2"/>
<feGaussianBlur stdDeviation="2"/>
<feComposite in2="hardAlpha" operator="out"/>
<feColorMatrix type="matrix" values="0 0 0 0 0 0 0 0 0 0 0 0 0 0 0 0 0 0 0.25 0"/>
<feBlend mode="normal" in2="BackgroundImageFix" result="effect1_dropShadow_1799_2783"/>
<feBlend mode="normal" in="SourceGraphic" in2="effect1_dropShadow_1799_2783" result="shape"/>
</filter>
<linearGradient id="paint0_linear_1799_2783" x1="24" y1="2" x2="24" y2="46" gradientUnits="userSpaceOnUse">
<stop stop-color="#4A6CF7"/>
<stop offset="1" stop-color="#9B51E0"/>
</linearGradient>
</defs>
</svg>
