<svg width="30" height="30" viewBox="0 0 30 30" fill="none" xmlns="http://www.w3.org/2000/svg">
<path d="M17.3292 29.2732V15.3912C17.3292 11.4782 18.1056 8.27941 19.6584 5.79494C21.2733 3.24835 23.323 1.47817 25.8075 0.484375L28.2298 6.35394C26.8012 6.91295 25.6832 7.87568 24.8758 9.24214C24.1304 10.5465 23.7578 12.5341 23.7578 15.2049H30V29.2732H17.3292ZM0 29.2732V15.3912C0 11.4782 0.776397 8.27941 2.32919 5.79494C3.9441 3.24835 5.99379 1.47817 8.47826 0.484375L10.9006 6.35394C9.47205 6.91295 8.35404 7.87568 7.54658 9.24214C6.80124 10.5465 6.42857 12.5341 6.42857 15.2049H12.6708V29.2732H0Z" fill="url(#paint0_linear_307_2145)"/>
<defs>
<linearGradient id="paint0_linear_307_2145" x1="15" y1="0.484375" x2="15" y2="29.2732" gradientUnits="userSpaceOnUse">
<stop stop-color="#ED0331"/>
<stop offset="1" stop-color="#87021C"/>
</linearGradient>
</defs>
</svg>
