<?xml version="1.0" encoding="UTF-8"?>
<svg version="1.1" xmlns="http://www.w3.org/2000/svg" width="500" height="394">
<path d="M0 0 C0.76121658 -0.00014603 1.52243317 -0.00029205 2.30671692 -0.0004425 C4.82275238 0.00025415 7.3387138 0.00803501 9.85473633 0.01586914 C11.59922749 0.0177342 13.34371918 0.01915769 15.08821106 0.02015686 C19.6798548 0.02397513 24.2714669 0.03379955 28.86309814 0.04486084 C33.54845756 0.05508978 38.23382209 0.05965766 42.91918945 0.06469727 C52.11256272 0.07542242 61.30591252 0.09249058 70.49926758 0.11352539 C70.02356196 1.5506043 69.54699581 2.98739838 69.07006836 4.42407227 C68.80477325 5.22421753 68.53947815 6.02436279 68.2661438 6.84875488 C67.37851621 9.47013332 66.40628056 12.04568208 65.37426758 14.61352539 C65.04168945 15.44883789 64.70911133 16.28415039 64.36645508 17.14477539 C63.49926758 19.11352539 63.49926758 19.11352539 62.49926758 20.11352539 C60.54654172 20.22140394 58.58994738 20.25980538 56.63427734 20.27124023 C55.37950089 20.28150238 54.12472443 20.29176453 52.83192444 20.30233765 C52.15720659 20.30577557 51.48248875 20.30921349 50.78732491 20.31275558 C48.6820891 20.32451083 46.57706161 20.3439538 44.47190857 20.36587524 C38.48524876 20.42760997 32.49860943 20.48158559 26.51171875 20.51489258 C22.85346478 20.53579628 19.1955886 20.57106418 15.53754997 20.61565018 C14.14091364 20.62984563 12.74421045 20.63854059 11.34750557 20.64170456 C9.39614017 20.64659314 7.44485467 20.67132485 5.49365234 20.69702148 C4.38192154 20.70510834 3.27019073 20.71319519 2.12477112 20.7215271 C0.82514687 20.91556625 0.82514687 20.91556625 -0.50073242 21.11352539 C-2.6365992 24.31732556 -2.73205417 25.13292506 -2.62573242 28.80102539 C-2.59866211 30.01338867 -2.59866211 30.01338867 -2.57104492 31.25024414 C-2.5478418 31.86512695 -2.52463867 32.48000977 -2.50073242 33.11352539 C0.74501334 34.08148336 3.66272732 34.23246943 7.04296875 34.22363281 C8.15480026 34.22421188 9.26663177 34.22479095 10.41215515 34.22538757 C12.20904533 34.22222282 12.20904533 34.22222282 14.04223633 34.21899414 C16.58586459 34.23245227 19.12948497 34.2474758 21.6730957 34.26391602 C25.67801679 34.2867256 29.68206935 34.30400799 33.68701172 34.28857422 C37.55606753 34.27973694 41.42336278 34.30871328 45.29223633 34.34399414 C47.07394478 34.32564766 47.07394478 34.32564766 48.89164734 34.30693054 C56.44434294 34.41637621 61.96969103 35.67099081 67.49926758 41.11352539 C67.49926758 41.77352539 67.49926758 42.43352539 67.49926758 43.11352539 C68.15926758 43.11352539 68.81926758 43.11352539 69.49926758 43.11352539 C73.27833202 49.37260088 73.88523094 54.63852501 73.87426758 61.80102539 C73.87555664 62.62062744 73.8768457 63.44022949 73.87817383 64.28466797 C73.79510869 68.93018046 73.26243654 72.74791903 71.49926758 77.11352539 C70.83926758 77.11352539 70.17926758 77.11352539 69.49926758 77.11352539 C69.45801758 77.67040039 69.41676758 78.22727539 69.37426758 78.80102539 C67.67876069 83.28200789 63.4328463 85.58005183 59.43676758 87.86352539 C54.29725709 90.05055113 49.48231141 90.25573926 43.95507812 90.22705078 C42.84207588 90.22726982 42.84207588 90.22726982 41.70658875 90.22749329 C39.26635768 90.22679943 36.82620398 90.21903179 34.38598633 90.21118164 C32.68919415 90.20931559 30.99240143 90.20789257 29.29560852 90.20689392 C24.83880108 90.20308349 20.38202645 90.19326582 15.92523193 90.18218994 C11.37374312 90.1719441 6.82224899 90.16738951 2.27075195 90.16235352 C-6.65309055 90.1516422 -15.57690875 90.13458352 -24.50073242 90.11352539 C-23.92533928 84.91067471 -22.20654349 80.87396503 -19.93823242 76.23852539 C-19.60887695 75.55016602 -19.27952148 74.86180664 -18.94018555 74.15258789 C-18.13377881 72.4696521 -17.31818748 70.79112246 -16.50073242 69.11352539 C-15.66357193 69.10321793 -14.82641144 69.09291046 -13.96388245 69.08229065 C-6.09098506 68.98448757 1.78183416 68.88199814 9.6546011 68.77418613 C13.70248575 68.7189201 17.75037758 68.66549437 21.79833984 68.61621094 C25.7016912 68.56862146 29.60495207 68.51628089 33.50819588 68.46058464 C35.00057802 68.44013645 36.49298501 68.42142752 37.98541069 68.40445137 C40.06881607 68.38046159 42.15204898 68.3504002 44.23535156 68.31884766 C45.42337875 68.30330338 46.61140594 68.28775909 47.83543396 68.27174377 C50.42006612 68.41403955 50.42006612 68.41403955 51.49926758 67.11352539 C51.59750695 65.44923488 51.62900389 63.78070608 51.62426758 62.11352539 C51.6268457 61.20602539 51.62942383 60.29852539 51.63208008 59.36352539 C51.75100537 57.14385928 51.75100537 57.14385928 50.49926758 56.11352539 C48.85405646 56.00622876 47.20433032 55.96728934 45.55566406 55.95581055 C43.97282875 55.94041733 43.97282875 55.94041733 42.35801697 55.92471313 C40.63162743 55.91376114 40.63162743 55.91376114 38.87036133 55.90258789 C36.44913079 55.87450371 34.02790693 55.84583916 31.60668945 55.81665039 C27.77750951 55.77547905 23.9484521 55.73860609 20.11914062 55.7121582 C16.43178242 55.68446063 12.74499718 55.63856799 9.05786133 55.59008789 C7.92110458 55.58683502 6.78434784 55.58358215 5.61314392 55.58023071 C-3.28719512 55.44336194 -10.4296265 53.92754582 -17.50073242 48.11352539 C-23.57550381 40.86082049 -24.79645592 32.85134966 -24.43823242 23.61352539 C-23.69413896 16.43471464 -21.81933935 10.28334488 -16.49682617 5.19946289 C-11.03367805 0.95370137 -6.87188034 -0.03438252 0 0 Z " fill="#EDEDED" transform="translate(322.500732421875,145.886474609375)"/>
<path d="M0 0 C1.18682625 0.00539291 1.18682625 0.00539291 2.39762878 0.01089478 C3.22682831 0.01074875 4.05602783 0.01060272 4.91035461 0.01045227 C7.664521 0.01115166 10.41862063 0.01894523 13.17277527 0.02676392 C15.07706668 0.028628 16.98135857 0.03005195 18.88565063 0.03105164 C23.90804865 0.03487754 28.93041794 0.04470843 33.95280457 0.05575562 C39.07365022 0.06596819 44.1945005 0.07054892 49.31535339 0.07559204 C59.37070459 0.08633064 69.42603442 0.10340792 79.48136902 0.12442017 C80.8489138 4.22705451 79.5516747 5.61398685 77.66886902 9.43692017 C75.58840699 13.69173681 73.99286021 17.5899466 72.48136902 22.12442017 C62.25136902 22.12442017 52.02136902 22.12442017 41.48136902 22.12442017 C41.49297058 27.0215686 41.50457214 31.91871704 41.51652527 36.96426392 C41.52163217 40.05866627 41.52644595 43.15306347 41.53019714 46.24746704 C41.53618503 51.16373772 41.54328386 56.07998986 41.55680847 60.99624634 C41.56763927 64.95788845 41.57364626 68.91951069 41.57624626 72.88116646 C41.57810016 74.39590328 41.58172011 75.91063895 41.58709908 77.42536736 C41.59431209 79.53983829 41.59535985 81.6542261 41.59489441 83.76870728 C41.59711502 84.97449936 41.59933563 86.18029144 41.60162354 87.42262268 C41.48136902 90.12442017 41.48136902 90.12442017 40.48136902 91.12442017 C33.55136902 91.12442017 26.62136902 91.12442017 19.48136902 91.12442017 C19.48136902 68.35442017 19.48136902 45.58442017 19.48136902 22.12442017 C8.26136902 22.12442017 -2.95863098 22.12442017 -14.51863098 22.12442017 C-14.51863098 16.49761301 -14.51863098 16.49761301 -12.80378723 13.17129517 C-12.44736145 12.47004517 -12.09093567 11.76879517 -11.72370911 11.04629517 C-11.34665833 10.32957642 -10.96960754 9.61285767 -10.58113098 8.87442017 C-10.02135559 7.77613892 -10.02135559 7.77613892 -9.45027161 6.65567017 C-6.03594708 0.01157921 -6.03594708 0.01157921 0 0 Z " fill="#A61D1E" transform="translate(219.5186309814453,144.87557983398438)"/>
<path d="M0 0 C7.59 0.33 15.18 0.66 23 1 C35.62163709 27.50543789 35.62163709 27.50543789 37 36 C37.66 36 38.32 36 39 36 C39.37125 37.051875 39.7425 38.10375 40.125 39.1875 C41.91106282 43.94206538 44.04595482 48.50815746 46.19140625 53.109375 C51.85053123 65.25298067 57.42428846 77.39954813 62 90 C60.38313926 91.61686074 58.6092385 91.12989349 56.37890625 91.1328125 C55.44369141 91.13410156 54.50847656 91.13539063 53.54492188 91.13671875 C52.06862305 91.13091797 52.06862305 91.13091797 50.5625 91.125 C49.09200195 91.13080078 49.09200195 91.13080078 47.59179688 91.13671875 C46.65529297 91.13542969 45.71878906 91.13414062 44.75390625 91.1328125 C43.45948608 91.13112061 43.45948608 91.13112061 42.13891602 91.12939453 C40 91 40 91 38 90 C37.18676758 88.30371094 37.18676758 88.30371094 36.33203125 85.984375 C33.66818351 79.05319836 30.67084647 72.28027557 27.67407227 65.48828125 C26.69625676 63.26986686 25.72398846 61.04907697 24.75195312 58.828125 C21.21536785 50.783252 17.50084094 42.87383266 13.5246582 35.03710938 C11.64017033 31.28322159 9.90615804 27.48392982 8.25 23.625 C7.97285156 22.99207031 7.69570312 22.35914063 7.41015625 21.70703125 C5.97656584 18.4023698 4.6460195 15.08163337 3.40625 11.69921875 C2.15228212 8.04396963 2.15228212 8.04396963 0.25 5.1875 C-0.36875 4.1046875 -0.36875 4.1046875 -1 3 C-0.67 2.01 -0.34 1.02 0 0 Z " fill="#EAEAEA" transform="translate(105,145)"/>
<path d="M0 0 C0.95310059 0.01047363 1.90620117 0.02094727 2.88818359 0.03173828 C4.43505859 0.04140625 4.43505859 0.04140625 6.01318359 0.05126953 C7.63353516 0.07640625 7.63353516 0.07640625 9.28662109 0.10205078 C10.37458984 0.11107422 11.46255859 0.12009766 12.58349609 0.12939453 C15.27642261 0.15301669 17.96891365 0.18595522 20.66162109 0.22705078 C18.61090812 7.03267942 15.85993353 13.29507738 12.72412109 19.66455078 C9.78340879 25.66501472 7.01788749 31.6599534 4.58422852 37.88500977 C3.23601348 41.30745666 1.76942111 44.67370688 0.28662109 48.03955078 C-0.01228027 48.72114258 -0.31118164 49.40273437 -0.61914062 50.10498047 C-2.51867014 54.41889345 -4.47308362 58.70407146 -6.46337891 62.97705078 C-9.26318722 68.99061757 -11.83693044 75.08411317 -14.33837891 81.22705078 C-17.33837891 80.22705078 -17.33837891 80.22705078 -18.3815918 78.5246582 C-18.68830811 77.80125244 -18.99502441 77.07784668 -19.31103516 76.33251953 C-19.65328125 75.54167969 -19.99552734 74.75083984 -20.34814453 73.93603516 C-20.69554687 73.10394531 -21.04294922 72.27185547 -21.40087891 71.41455078 C-22.09947879 69.78277527 -22.79867778 68.1512561 -23.49853516 66.52001953 C-23.80412354 65.79322998 -24.10971191 65.06644043 -24.42456055 64.31762695 C-25.31723386 62.19895478 -25.31723386 62.19895478 -26.46313477 60.13208008 C-27.81197338 57.19623971 -27.14644079 55.31713928 -26.33837891 52.22705078 C-25.2335967 49.62855794 -24.08875168 47.12722582 -22.83837891 44.60205078 C-22.11163526 43.09495262 -21.38643924 41.58710742 -20.66259766 40.07861328 C-20.28280762 39.2900293 -19.90301758 38.50144531 -19.51171875 37.68896484 C-17.50393615 33.47621416 -15.57106826 29.23031262 -13.65087891 24.97705078 C-13.27116943 24.13658203 -12.89145996 23.29611328 -12.50024414 22.43017578 C-9.86934828 16.54968859 -7.48625973 10.62866826 -5.31103516 4.56298828 C-4.06113074 1.56120981 -3.32691303 0.32303499 0 0 Z " fill="#ECECEC" transform="translate(186.33837890625,145.77294921875)"/>
<path d="M0 0 C1.65 0 3.3 0 5 0 C5 1.32 5 2.64 5 4 C5.66 4 6.32 4 7 4 C7.66 2.68 8.32 1.36 9 0 C10.98 0 12.96 0 15 0 C15 0.99 15 1.98 15 3 C13.37064759 4.37868281 11.70250393 5.71274093 10 7 C9.67 7.66 9.34 8.32 9 9 C9.66 9 10.32 9 11 9 C11 9.66 11 10.32 11 11 C11.66 11 12.32 11 13 11 C13 11.66 13 12.32 13 13 C13.99 13 14.98 13 16 13 C16.12890625 12.42636719 16.2578125 11.85273438 16.390625 11.26171875 C17.00395626 8.9853162 17.76910479 6.95519324 18.75 4.8125 C19.20632812 3.77029297 19.20632812 3.77029297 19.671875 2.70703125 C21 1 21 1 26 0 C27.98 3.63 29.96 7.26 32 11 C32.99 10.67 33.98 10.34 35 10 C34.34 9.34 33.68 8.68 33 8 C32.75 5 32.75 5 33 2 C35 0 35 0 37.6015625 -0.1953125 C38.59929687 -0.17210937 39.59703125 -0.14890625 40.625 -0.125 C42.12933594 -0.09792969 42.12933594 -0.09792969 43.6640625 -0.0703125 C44.43492187 -0.04710937 45.20578125 -0.02390625 46 0 C46.625 1.875 46.625 1.875 47 4 C46.34 4.66 45.68 5.32 45 6 C45.66 6.66 46.32 7.32 47 8 C47.3125 11 47.3125 11 47 14 C43.25720213 16.49519858 40.26999036 16.33165336 35.9375 16.3125 C34.83825195 16.33666992 34.83825195 16.33666992 33.71679688 16.36132812 C31.58984375 16.36328125 31.58984375 16.36328125 28 16 C27.34 15.01 26.68 14.02 26 13 C22.20452079 13.96776098 22.20452079 13.96776098 19 16 C15.96590677 16.37541519 13.03057361 16.40796183 10 16 C7.4375 14 7.4375 14 6 12 C5.67 13.32 5.34 14.64 5 16 C3.35 16 1.7 16 0 16 C0 10.72 0 5.44 0 0 Z M23 7 C22.67 7.66 22.34 8.32 22 9 C22.66 9 23.32 9 24 9 C23.67 8.34 23.34 7.68 23 7 Z " fill="#898989" transform="translate(131,250)"/>
<path d="M0 0 C0.90105469 0.01804688 1.80210937 0.03609375 2.73046875 0.0546875 C3.41753906 0.07789063 4.10460937 0.10109375 4.8125 0.125 C4.8125 2.435 4.8125 4.745 4.8125 7.125 C5.245625 6.155625 5.67875 5.18625 6.125 4.1875 C7.8125 1.125 7.8125 1.125 10.8125 0.125 C12.75 -0.0078125 12.75 -0.0078125 14.8125 0 C15.493125 -0.00257813 16.17375 -0.00515625 16.875 -0.0078125 C18.8125 0.125 18.8125 0.125 21.8125 1.125 C24.2802205 4.82658075 24.46897105 7.83202487 23.8125 12.125 C22.4375 14.625 22.4375 14.625 19.8125 16.125 C16.40119014 16.66098322 13.19194639 16.89228666 9.8125 16.125 C8.00390625 14.09375 8.00390625 14.09375 6.8125 12.125 C6.1628125 13.115 6.1628125 13.115 5.5 14.125 C1.29468589 17.25453609 -3.11499266 16.43984528 -8.1875 16.125 C-8.1875 14.475 -8.1875 12.825 -8.1875 11.125 C-7.5275 10.795 -6.8675 10.465 -6.1875 10.125 C-6.703125 9.733125 -7.21875 9.34125 -7.75 8.9375 C-9.1875 7.125 -9.1875 7.125 -9.0625 4.5625 C-7.39975442 -0.06943411 -4.37862215 -0.11373045 0 0 Z M-4.1875 5.125 C-0.1875 6.125 -0.1875 6.125 -0.1875 6.125 Z M11.8125 5.125 C11.8125 7.105 11.8125 9.085 11.8125 11.125 C13.7925 11.125 15.7725 11.125 17.8125 11.125 C17.8125 9.145 17.8125 7.165 17.8125 5.125 C15.8325 5.125 13.8525 5.125 11.8125 5.125 Z " fill="#BCBCBC" transform="translate(279.1875,249.875)"/>
<path d="M0 0 C11.88 0 23.76 0 36 0 C36 22.44 36 44.88 36 68 C41.94 68 47.88 68 54 68 C54 45.56 54 23.12 54 0 C64.89 0 75.78 0 87 0 C87 0.33 87 0.66 87 1 C76.77 1 66.54 1 56 1 C56.01160156 5.89714844 56.02320313 10.79429687 56.03515625 15.83984375 C56.04026315 18.93424611 56.04507694 22.0286433 56.04882812 25.12304688 C56.05481601 30.03931756 56.06191484 34.95556969 56.07543945 39.87182617 C56.08627025 43.83346828 56.09227724 47.79509052 56.09487724 51.75674629 C56.09673114 53.27148311 56.1003511 54.78621879 56.10573006 56.30094719 C56.11294307 58.41541813 56.11399083 60.52980594 56.11352539 62.64428711 C56.115746 63.85007919 56.11796661 65.05587128 56.12025452 66.29820251 C56 69 56 69 55 70 C48.07 70 41.14 70 34 70 C34 47.23 34 24.46 34 1 C22.78 1 11.56 1 0 1 C0 0.67 0 0.34 0 0 Z " fill="#570E0F" transform="translate(205,166)"/>
<path d="M0 0 C9.57 0 19.14 0 29 0 C29 3.63 29 7.26 29 11 C29.33 12.32 29.66 13.64 30 15 C29 16 29 16 26.05859375 16.09765625 C24.86363281 16.08605469 23.66867188 16.07445312 22.4375 16.0625 C20.64119141 16.04896484 20.64119141 16.04896484 18.80859375 16.03515625 C17.88175781 16.02355469 16.95492187 16.01195312 16 16 C15.67 12.37 15.34 8.74 15 5 C13.35 5 11.7 5 10 5 C10 8.63 10 12.26 10 16 C8.68 16 7.36 16 6 16 C6 12.37 6 8.74 6 5 C4.02 5 2.04 5 0 5 C0 3.35 0 1.7 0 0 Z " fill="#9C9C9C" transform="translate(201,250)"/>
<path d="M0 0 C2.475 0.495 2.475 0.495 5 1 C5.125 8.75 5.125 8.75 4 11 C6.97 11 9.94 11 13 11 C13 7.7 13 4.4 13 1 C14.65 0.67 16.3 0.34 18 0 C18 3.63 18 7.26 18 11 C19.98 11 21.96 11 24 11 C24 7.37 24 3.74 24 0 C25.65 0 27.3 0 29 0 C29.08133791 1.91595968 29.13934367 3.83291932 29.1875 5.75 C29.23970703 7.35101563 29.23970703 7.35101563 29.29296875 8.984375 C28.9647211 12.36313747 28.47904469 13.70194751 26 16 C21.88364702 16.96275659 18.07321156 16.6282214 14.4375 14.5 C13.963125 14.005 13.48875 13.51 13 13 C13 13.99 13 14.98 13 16 C8.71 16 4.42 16 0 16 C0 10.72 0 5.44 0 0 Z " fill="#848484" transform="translate(304,250)"/>
<path d="M0 0 C2.25 -0.3125 2.25 -0.3125 5 0 C7.3125 2.5 7.3125 2.5 9 5 C9.66 3.35 10.32 1.7 11 0 C12.32 0 13.64 0 15 0 C15 5.28 15 10.56 15 16 C13.35 16 11.7 16 10 16 C7.6875 13 7.6875 13 6 10 C5.67 11.98 5.34 13.96 5 16 C3.35 16 1.7 16 0 16 C-0.19441368 13.7089095 -0.38033135 11.41709663 -0.5625 9.125 C-0.71912109 7.21074219 -0.71912109 7.21074219 -0.87890625 5.2578125 C-1 2 -1 2 0 0 Z " fill="#CACACA" transform="translate(374,250)"/>
<path d="M0 0 C0.66 -0.00773438 1.32 -0.01546875 2 -0.0234375 C4.71094505 0.51663358 6.05415772 1.41632799 8 3.375 C8.49609375 5.75 8.49609375 5.75 8.4375 8.375 C8.43621094 9.24125 8.43492187 10.1075 8.43359375 11 C7.9165563 13.83206099 7.35639906 14.74445601 5 16.375 C2.87890625 16.7734375 2.87890625 16.7734375 0.5625 16.75 C-0.19933594 16.75773437 -0.96117187 16.76546875 -1.74609375 16.7734375 C-4.61915752 16.26554754 -5.96300648 15.46212088 -8 13.375 C-8.53125 11 -8.53125 11 -8.5 8.375 C-8.5103125 7.50875 -8.520625 6.6425 -8.53125 5.75 C-8 3.375 -8 3.375 -6.21875 1.5859375 C-3.89921287 0.31999294 -2.61430886 -0.03063643 0 0 Z M-3 5.375 C-3 7.355 -3 9.335 -3 11.375 C-1.02 11.375 0.96 11.375 3 11.375 C3 9.395 3 7.415 3 5.375 C1.02 5.375 -0.96 5.375 -3 5.375 Z " fill="#C2C2C2" transform="translate(364,249.625)"/>
<path d="M0 0 C0.90105469 0.01804688 1.80210937 0.03609375 2.73046875 0.0546875 C3.41753906 0.07789063 4.10460937 0.10109375 4.8125 0.125 C4.86634521 2.41641286 4.90522087 4.70818188 4.9375 7 C4.96070313 8.27617187 4.98390625 9.55234375 5.0078125 10.8671875 C4.8125 14.125 4.8125 14.125 2.8125 16.125 C0.2109375 16.3203125 0.2109375 16.3203125 -2.8125 16.25 C-4.31683594 16.22292969 -4.31683594 16.22292969 -5.8515625 16.1953125 C-6.62242187 16.17210937 -7.39328125 16.14890625 -8.1875 16.125 C-8.1875 14.475 -8.1875 12.825 -8.1875 11.125 C-7.5275 10.795 -6.8675 10.465 -6.1875 10.125 C-6.703125 9.733125 -7.21875 9.34125 -7.75 8.9375 C-9.1875 7.125 -9.1875 7.125 -9.0625 4.5625 C-7.39975442 -0.06943411 -4.37862215 -0.11373045 0 0 Z M-4.1875 5.125 C-0.1875 6.125 -0.1875 6.125 -0.1875 6.125 Z " fill="#ECECEC" transform="translate(279.1875,249.875)"/>
<path d="M0 0 C1.65 0 3.3 0 5 0 C5 1.98 5 3.96 5 6 C6.98 6 8.96 6 11 6 C11 4.02 11 2.04 11 0 C12.65 0.33 14.3 0.66 16 1 C16 5.62 16 10.24 16 15 C14.35 15.33 12.7 15.66 11 16 C11 14.02 11 12.04 11 10 C9.02 10 7.04 10 5 10 C5 11.98 5 13.96 5 16 C3.35 16 1.7 16 0 16 C0 10.72 0 5.44 0 0 Z " fill="#929292" transform="translate(247,250)"/>
<path d="M0 0 C0.99773437 0.02320313 1.99546875 0.04640625 3.0234375 0.0703125 C4.52777344 0.09738281 4.52777344 0.09738281 6.0625 0.125 C6.83335937 0.14820313 7.60421875 0.17140625 8.3984375 0.1953125 C9.0234375 2.0703125 9.0234375 2.0703125 9.3984375 4.1953125 C8.7384375 4.8553125 8.0784375 5.5153125 7.3984375 6.1953125 C8.0584375 6.8553125 8.7184375 7.5153125 9.3984375 8.1953125 C9.5234375 11.3203125 9.5234375 11.3203125 9.3984375 14.1953125 C6.75385371 15.51760439 4.72082449 15.29208444 1.7734375 15.2578125 C0.77054688 15.24878906 -0.23234375 15.23976563 -1.265625 15.23046875 C-2.03648437 15.21886719 -2.80734375 15.20726562 -3.6015625 15.1953125 C-3.9315625 13.8753125 -4.2615625 12.5553125 -4.6015625 11.1953125 C-3.9415625 10.8653125 -3.2815625 10.5353125 -2.6015625 10.1953125 C-3.2615625 9.5353125 -3.9215625 8.8753125 -4.6015625 8.1953125 C-4.8515625 5.1953125 -4.8515625 5.1953125 -4.6015625 2.1953125 C-2.6015625 0.1953125 -2.6015625 0.1953125 0 0 Z " fill="#D5D4D2" transform="translate(168.6015625,249.8046875)"/>
<path d="M0 0 C2.475 0.495 2.475 0.495 5 1 C5 2.65 5 4.3 5 6 C6.98 6 8.96 6 11 6 C11 4.02 11 2.04 11 0 C12.32 0 13.64 0 15 0 C16.44207941 2.88415883 16.09394887 5.41721528 16.0625 8.625 C16.05347656 9.81351562 16.04445312 11.00203125 16.03515625 12.2265625 C16.02355469 13.14179688 16.01195312 14.05703125 16 15 C14.35 15.33 12.7 15.66 11 16 C11 14.02 11 12.04 11 10 C9.02 10 7.04 10 5 10 C5 11.65 5 13.3 5 15 C3.35 15.33 1.7 15.66 0 16 C0 10.72 0 5.44 0 0 Z " fill="#BDBDBD" transform="translate(179,250)"/>
<path d="M0 0 C3.96 0 7.92 0 12 0 C11.95117188 3.7109375 11.95117188 3.7109375 11.90234375 7.421875 C11.92172179 10.26953476 11.92172179 10.26953476 13 14 C8.71 14 4.42 14 0 14 C0 9.38 0 4.76 0 0 Z " fill="#D9D9D9" transform="translate(218,251)"/>
<path d="M0 0 C1.21236328 0.01353516 1.21236328 0.01353516 2.44921875 0.02734375 C3.37154297 0.04474609 3.37154297 0.04474609 4.3125 0.0625 C4.6425 1.7125 4.9725 3.3625 5.3125 5.0625 C0.8575 5.5575 0.8575 5.5575 -3.6875 6.0625 C-3.6875 7.7125 -3.6875 9.3625 -3.6875 11.0625 C-0.7175 11.0625 2.2525 11.0625 5.3125 11.0625 C5.3125 12.7125 5.3125 14.3625 5.3125 16.0625 C1.6825 16.0625 -1.9475 16.0625 -5.6875 16.0625 C-5.6875 15.4025 -5.6875 14.7425 -5.6875 14.0625 C-6.3475 14.0625 -7.0075 14.0625 -7.6875 14.0625 C-10.01286063 10.57445905 -10.02207898 9.16109246 -9.6875 5.0625 C-8.875 2.75 -8.875 2.75 -7.6875 1.0625 C-4.80538698 0.10179566 -2.98899956 -0.04331883 0 0 Z " fill="#A5A5A5" transform="translate(240.6875,249.9375)"/>
<path d="M0 0 C1.65 0 3.3 0 5 0 C5 1.32 5 2.64 5 4 C5.66 4 6.32 4 7 4 C7.66 2.68 8.32 1.36 9 0 C10.98 0 12.96 0 15 0 C15 0.99 15 1.98 15 3 C14.175 3.639375 13.35 4.27875 12.5 4.9375 C11.675 5.618125 10.85 6.29875 10 7 C10 8.32 10 9.64 10 11 C10.66 11.33 11.32 11.66 12 12 C12 12.66 12 13.32 12 14 C10.02 13.34 8.04 12.68 6 12 C5.67 13.32 5.34 14.64 5 16 C3.35 16 1.7 16 0 16 C0 10.72 0 5.44 0 0 Z " fill="#8B8B89" transform="translate(131,250)"/>
<path d="M0 0 C2.3125 0.125 2.3125 0.125 5 1 C6.8125 4.0625 6.8125 4.0625 8 7 C9.89213369 4.61426621 11.02391783 2.92824652 12 0 C13.65 0 15.3 0 17 0 C16.52412884 6.02770138 13.80277043 10.76678289 11 16 C9.35 16 7.7 16 6 16 C0.44419134 5.62642369 0.44419134 5.62642369 0 0 Z " fill="#AFAFAF" transform="translate(107,250)"/>
<path d="M0 0 C4.95 0 9.9 0 15 0 C15 1.65 15 3.3 15 5 C13.35 5 11.7 5 10 5 C10 8.3 10 11.6 10 15 C8.35 15.33 6.7 15.66 5 16 C5 12.37 5 8.74 5 5 C3.35 5 1.7 5 0 5 C0 3.35 0 1.7 0 0 Z " fill="#B0B0B0" transform="translate(334,250)"/>
<path d="M0 0 C3.3 0 6.6 0 10 0 C11.37018127 4.11054382 10.06181253 5.53858514 8.1875 9.375 C6.32081188 13.23252653 4.5942919 17.01427026 3 21 C-7.56 21 -18.12 21 -29 21 C-29 20.67 -29 20.34 -29 20 C-18.77 20 -8.54 20 2 20 C2 18.02 2 16.04 2 14 C2.66 14 3.32 14 4 14 C4 11.36 4 8.72 4 6 C5.65 5.67 7.3 5.34 9 5 C9 3.68 9 2.36 9 1 C6.03 1 3.06 1 0 1 C0 0.67 0 0.34 0 0 Z " fill="#771C1C" transform="translate(289,145)"/>
<path d="M0 0 C1.32 0 2.64 0 4 0 C5.32 3.3 6.64 6.6 8 10 C4.52674819 11.1577506 1.63932552 11.06866652 -2 11 C-2.33 11.99 -2.66 12.98 -3 14 C-3.66 14 -4.32 14 -5 14 C-4.29867628 11.05309167 -3.45072057 8.18842973 -2.5 5.3125 C-2.2421875 4.52488281 -1.984375 3.73726562 -1.71875 2.92578125 C-1 1 -1 1 0 0 Z M1 7 C0.67 7.66 0.34 8.32 0 9 C0.66 9 1.32 9 2 9 C1.67 8.34 1.34 7.68 1 7 Z " fill="#F0F0EE" transform="translate(153,250)"/>
<path d="M0 0 C2.475 0.495 2.475 0.495 5 1 C5.125 8.625 5.125 8.625 4 12 C6.64 12 9.28 12 12 12 C12 12.99 12 13.98 12 15 C8.04 15 4.08 15 0 15 C0 10.05 0 5.1 0 0 Z " fill="#D3D3D3" transform="translate(304,250)"/>
<path d="M0 0 C1.65 0 3.3 0 5 0 C5 5.28 5 10.56 5 16 C3.35 16 1.7 16 0 16 C0 10.72 0 5.44 0 0 Z " fill="#ADADAC" transform="translate(350,250)"/>
<path d="M0 0 C1.65 0 3.3 0 5 0 C5.38133299 1.9914056 5.71325582 3.99279077 6 6 C5.67 6.33 5.34 6.66 5 7 C4.76924918 8.34747084 4.58846937 9.70377565 4.4375 11.0625 C4.293125 12.361875 4.14875 13.66125 4 15 C2.68 15 1.36 15 0 15 C-0.19448477 12.87562788 -0.38038289 10.75046809 -0.5625 8.625 C-0.66691406 7.44164062 -0.77132813 6.25828125 -0.87890625 5.0390625 C-1 2 -1 2 0 0 Z " fill="#B9B9B9" transform="translate(374,250)"/>
<path d="M0 0 C1.21236328 0.01353516 1.21236328 0.01353516 2.44921875 0.02734375 C3.37154297 0.04474609 3.37154297 0.04474609 4.3125 0.0625 C4.6425 1.7125 4.9725 3.3625 5.3125 5.0625 C1.6825 5.3925 -1.9475 5.7225 -5.6875 6.0625 C-6.0175 7.3825 -6.3475 8.7025 -6.6875 10.0625 C-7.3475 9.7325 -8.0075 9.4025 -8.6875 9.0625 C-8.3575 6.4225 -8.0275 3.7825 -7.6875 1.0625 C-4.80538698 0.10179566 -2.98899956 -0.04331883 0 0 Z " fill="#B4B4B4" transform="translate(240.6875,249.9375)"/>
<path d="M0 0 C1.32 0.33 2.64 0.66 4 1 C4.05395478 2.62463842 4.09277195 4.24978541 4.125 5.875 C4.14820313 6.77992188 4.17140625 7.68484375 4.1953125 8.6171875 C4 11 4 11 2 13 C-0.1640625 13.1953125 -0.1640625 13.1953125 -2.625 13.125 C-3.44226563 13.10695313 -4.25953125 13.08890625 -5.1015625 13.0703125 C-5.72804688 13.04710937 -6.35453125 13.02390625 -7 13 C-6.67 12.01 -6.34 11.02 -6 10 C-4.02 9.67 -2.04 9.34 0 9 C0 6.03 0 3.06 0 0 Z " fill="#D8D8D8" transform="translate(368,252)"/>
<path d="M0 0 C1.32 0 2.64 0 4 0 C4 5.28 4 10.56 4 16 C2.68 16 1.36 16 0 16 C0 10.72 0 5.44 0 0 Z " fill="#D6D6D5" transform="translate(125,250)"/>
<path d="M0 0 C0.680625 -0.00257813 1.36125 -0.00515625 2.0625 -0.0078125 C4 0.125 4 0.125 7 1.125 C9.67927341 5.14391012 9.15601248 7.36661923 9 12.125 C8.67 12.125 8.34 12.125 8 12.125 C7.67 9.815 7.34 7.505 7 5.125 C6.01 4.795 5.02 4.465 4 4.125 C4 6.435 4 8.745 4 11.125 C3.67 11.125 3.34 11.125 3 11.125 C3 9.145 3 7.165 3 5.125 C1.02 5.125 -0.96 5.125 -3 5.125 C-2.34 4.465 -1.68 3.805 -1 3.125 C-2.98 3.125 -4.96 3.125 -7 3.125 C-7 2.465 -7 1.805 -7 1.125 C-4.32356043 0.23285348 -2.74615622 -0.01040211 0 0 Z " fill="#7F7F7D" transform="translate(294,249.875)"/>
<path d="M0 0 C0.66 0.33 1.32 0.66 2 1 C2 1.99 2 2.98 2 4 C2.99 4.33 3.98 4.66 5 5 C3 7 3 7 0.3984375 7.1953125 C-0.59929687 7.17210937 -1.59703125 7.14890625 -2.625 7.125 C-4.12933594 7.09792969 -4.12933594 7.09792969 -5.6640625 7.0703125 C-6.43492187 7.04710937 -7.20578125 7.02390625 -8 7 C-8 5.35 -8 3.7 -8 2 C-5.36 2 -2.72 2 0 2 C0 1.34 0 0.68 0 0 Z " fill="#B6B6B6" transform="translate(279,259)"/>
<path d="M0 0 C0 1.65 0 3.3 0 5 C-2.91482778 5.80967438 -4.46113217 6.21845993 -7.3125 5.0625 C-7.869375 4.711875 -8.42625 4.36125 -9 4 C-8.01 4 -7.02 4 -6 4 C-6 3.34 -6 2.68 -6 2 C-9.81413002 3.1678266 -9.81413002 3.1678266 -12.3125 6.125 C-12.539375 6.74375 -12.76625 7.3625 -13 8 C-13.75 6.25 -13.75 6.25 -14 4 C-10.81989666 -1.45160573 -5.56528019 -0.38234749 0 0 Z " fill="#8C8C8C" transform="translate(284,250)"/>
<path d="M0 0 C1.32 0 2.64 0 4 0 C4 4.62 4 9.24 4 14 C2.68 14 1.36 14 0 14 C0 9.38 0 4.76 0 0 Z " fill="#ADADAD" transform="translate(259,251)"/>
<path d="M0 0 C0.33 0 0.66 0 1 0 C1.07654536 4.51617599 1.10228696 8.59085217 0 13 C-1.32 11.68 -2.64 10.36 -4 9 C-4.33 10.98 -4.66 12.96 -5 15 C-6.65 15 -8.3 15 -10 15 C-8.68 14.67 -7.36 14.34 -6 14 C-6.061875 12.7625 -6.12375 11.525 -6.1875 10.25 C-6.20362826 7.21788698 -6.10651023 6.17751704 -4.5 3.5 C-4.005 3.005 -3.51 2.51 -3 2 C-2.34 2.66 -1.68 3.32 -1 4 C-0.67 2.68 -0.34 1.36 0 0 Z " fill="#8B8B8B" transform="translate(384,251)"/>
<path d="M0 0 C0.66 0.33 1.32 0.66 2 1 C1.67 1.66 1.34 2.32 1 3 C3.31 3.33 5.62 3.66 8 4 C8.33 4.99 8.66 5.98 9 7 C5.04 7 1.08 7 -3 7 C-2.625 4.0625 -2.625 4.0625 -2 1 C-1.34 0.67 -0.68 0.34 0 0 Z " fill="#F4F4F4" transform="translate(221,258)"/>
<path d="M0 0 C1.65 0 3.3 0 5 0 C4.45660208 4.56454251 3.20536179 7.9728176 1 12 C-0.32 10.35 -1.64 8.7 -3 7 C-2.01 4.69 -1.02 2.38 0 0 Z " fill="#A1A1A1" transform="translate(119,250)"/>
<path d="M0 0 C0.99 0 1.98 0 3 0 C3 1.65 3 3.3 3 5 C3.66 5.33 4.32 5.66 5 6 C4.34 8.64 3.68 11.28 3 14 C2.01 14 1.02 14 0 14 C0 9.38 0 4.76 0 0 Z " fill="#F8F8F6" transform="translate(132,251)"/>
<path d="M0 0 C1.32 0 2.64 0 4 0 C4.91297308 4.97063121 4.91297308 9.02936879 4 14 C3.01 14 2.02 14 1 14 C0.67 9.38 0.34 4.76 0 0 Z " fill="#F3F3F3" transform="translate(247,251)"/>
<path d="M0 0 C2.475 0.495 2.475 0.495 5 1 C6.57312496 4.67062491 7.14440048 6.44302674 6.125 10.375 C5.75375 11.24125 5.3825 12.1075 5 13 C2.2946129 8.94191935 0 4.95110601 0 0 Z " fill="#ACACAC" transform="translate(107,250)"/>
<path d="M0 0 C4.16138263 -0.08159574 7.9472484 0.01751476 12 1 C12 1.99 12 2.98 12 4 C8.37 4 4.74 4 1 4 C0.67 2.68 0.34 1.36 0 0 Z " fill="#E6E7E6" transform="translate(164,261)"/>
<path d="M0 0 C2.64 0 5.28 0 8 0 C7.979375 0.7425 7.95875 1.485 7.9375 2.25 C7.99328688 4.70462279 8.3069904 6.66109261 9 9 C6 7 3 5 0 3 C0 2.01 0 1.02 0 0 Z " fill="#CFCFCF" transform="translate(222,256)"/>
<path d="M0 0 C0.5625 1.9375 0.5625 1.9375 1 4 C0 5 0 5 -2.28515625 5.09765625 C-3.65994141 5.08025391 -3.65994141 5.08025391 -5.0625 5.0625 C-5.98160156 5.05347656 -6.90070313 5.04445313 -7.84765625 5.03515625 C-8.55792969 5.02355469 -9.26820313 5.01195312 -10 5 C-10 3.68 -10 2.36 -10 1 C-7.98177083 1.03255208 -5.96354167 1.06510417 -3.9453125 1.09765625 C-1.91814596 1.12649242 -1.91814596 1.12649242 0 0 Z " fill="#B4B4B4" transform="translate(299,261)"/>
<path d="M0 0 C1.32 0 2.64 0 4 0 C4.05391993 1.79133978 4.09275571 3.58313899 4.125 5.375 C4.14820313 6.37273437 4.17140625 7.37046875 4.1953125 8.3984375 C4 11 4 11 2 13 C0.21590198 9.93753253 -0.22880021 7.77920727 -0.125 4.25 C-0.10695313 3.45078125 -0.08890625 2.6515625 -0.0703125 1.828125 C-0.04710937 1.22484375 -0.02390625 0.6215625 0 0 Z " fill="#D8D8D8" transform="translate(329,251)"/>
<path d="M0 0 C3.63 0 7.26 0 11 0 C11.33 1.32 11.66 2.64 12 4 C11 5 11 5 8.93359375 5.09765625 C8.10988281 5.08605469 7.28617188 5.07445312 6.4375 5.0625 C5.61121094 5.05347656 4.78492188 5.04445312 3.93359375 5.03515625 C3.29550781 5.02355469 2.65742188 5.01195312 2 5 C3.32 4.34 4.64 3.68 6 3 C3.69 2.67 1.38 2.34 -1 2 C-0.67 1.34 -0.34 0.68 0 0 Z " fill="#777775" transform="translate(166,250)"/>
<path d="M0 0 C6.0546875 -0.1953125 6.0546875 -0.1953125 8 0 C8.66 0.66 9.32 1.32 10 2 C9.67 2.66 9.34 3.32 9 4 C8.63858045 6.32914823 8.30300475 8.66253478 8 11 C7.67 11 7.34 11 7 11 C7 9.02 7 7.04 7 5 C5.02 5 3.04 5 1 5 C1 6.98 1 8.96 1 11 C0.67 11 0.34 11 0 11 C0 8.69 0 6.38 0 4 C3.465 3.505 3.465 3.505 7 3 C7 2.34 7 1.68 7 1 C4.69 1 2.38 1 0 1 C0 0.67 0 0.34 0 0 Z " fill="#787878" transform="translate(360,250)"/>
<path d="M0 0 C1.32 0.33 2.64 0.66 4 1 C4 3.64 4 6.28 4 9 C3.01 9.495 3.01 9.495 2 10 C1.67 9.34 1.34 8.68 1 8 C-0.65 8.33 -2.3 8.66 -4 9 C-2.68 8.34 -1.36 7.68 0 7 C0 4.69 0 2.38 0 0 Z " fill="#ECECEB" transform="translate(298,254)"/>
<path d="M0 0 C3.63 0 7.26 0 11 0 C11 0.99 11 1.98 11 3 C7.37 3 3.74 3 0 3 C0 2.01 0 1.02 0 0 Z " fill="#F4F5F7" transform="translate(305,262)"/>
<path d="M0 0 C0.99 0 1.98 0 3 0 C3 2.64 3 5.28 3 8 C1.68 8 0.36 8 -1 8 C-1.04241723 5.66705225 -1.04092937 3.33297433 -1 1 C-0.67 0.67 -0.34 0.34 0 0 Z " fill="#E9E9E9" transform="translate(375,257)"/>
<path d="M0 0 C0.99 0 1.98 0 3 0 C3 1.98 3 3.96 3 6 C2.34 6 1.68 6 1 6 C1 5.34 1 4.68 1 4 C-0.918125 3.814375 -0.918125 3.814375 -2.875 3.625 C-6.75 3.25 -6.75 3.25 -9 1 C-7.700625 1.020625 -6.40125 1.04125 -5.0625 1.0625 C-3.70834367 1.08399454 -2.35243917 1.07148199 -1 1 C-0.67 0.67 -0.34 0.34 0 0 Z " fill="#A0A09F" transform="translate(175,258)"/>
<path d="M0 0 C1.32 0 2.64 0 4 0 C4 0.66 4 1.32 4 2 C3.01 2 2.02 2 1 2 C1.27617533 3.94074861 1.27617533 3.94074861 2 6 C2.99 6.66 3.98 7.32 5 8 C3.00045254 8.04254356 0.99958364 8.04080783 -1 8 C-2 7 -2 7 -2.1875 4.5625 C-2 2 -2 2 0 0 Z " fill="#DEDEDE" transform="translate(274,252)"/>
<path d="M0 0 C0.66 0 1.32 0 2 0 C2 0.66 2 1.32 2 2 C1.01 2.495 1.01 2.495 0 3 C-0.103125 4.11375 -0.20625 5.2275 -0.3125 6.375 C-1 10 -1 10 -3.5625 11.9375 C-4.366875 12.288125 -5.17125 12.63875 -6 13 C-2.98165138 2.98165138 -2.98165138 2.98165138 0 0 Z " fill="#671818" transform="translate(214,145)"/>
<path d="M0 0 C1.32 0 2.64 0 4 0 C4.33 1.32 4.66 2.64 5 4 C4.01 4.33 3.02 4.66 2 5 C1.7763932 7.9254644 1.7763932 7.9254644 3 10 C1.68 10 0.36 10 -1 10 C-0.48674019 7.94696077 0.02775465 5.90563418 0.625 3.875 C1.2156101 1.91960301 1.2156101 1.91960301 0 0 Z " fill="#AFAFAE" transform="translate(153,250)"/>
<path d="M0 0 C-0.33 0.66 -0.66 1.32 -1 2 C-3.97 2 -6.94 2 -10 2 C-9.67 1.01 -9.34 0.02 -9 -1 C-5.52718036 -2.61238055 -3.32673591 -1.57095862 0 0 Z " fill="#E4E4E4" transform="translate(371,263)"/>
<path d="M0 0 C1 3 1 3 0.0625 5.1875 C-0.4634375 6.0846875 -0.4634375 6.0846875 -1 7 C-1.99 6.67 -2.98 6.34 -4 6 C-5.1875 3.4375 -5.1875 3.4375 -6 1 C-4.02 0.67 -2.04 0.34 0 0 Z " fill="#989898" transform="translate(173,220)"/>
<path d="M0 0 C0.33 0 0.66 0 1 0 C1 3.63 1 7.26 1 11 C0.01 11 -0.98 11 -2 11 C-1.85892253 9.54119891 -1.71197585 8.08296449 -1.5625 6.625 C-1.48128906 5.81289062 -1.40007812 5.00078125 -1.31640625 4.1640625 C-1 2 -1 2 0 0 Z " fill="#BCBFBE" transform="translate(301,158)"/>
<path d="M0 0 C0.99 0.33 1.98 0.66 3 1 C3 2.65 3 4.3 3 6 C1.35 6.33 -0.3 6.66 -2 7 C-2 6.01 -2 5.02 -2 4 C-1.34 4 -0.68 4 0 4 C0 2.68 0 1.36 0 0 Z " fill="#E9E9E9" transform="translate(116,258)"/>
<path d="M0 0 C0.99 0 1.98 0 3 0 C3.1875 3.3125 3.1875 3.3125 3 7 C2.01 7.99 1.02 8.98 0 10 C0 6.7 0 3.4 0 0 Z " fill="#F5F5F5" transform="translate(318,251)"/>
<path d="M0 0 C0.33 0 0.66 0 1 0 C1 2.97 1 5.94 1 9 C0.01 9 -0.98 9 -2 9 C-2 6.69 -2 4.38 -2 2 C-1.34 2 -0.68 2 0 2 C0 1.34 0 0.68 0 0 Z " fill="#F2F2F2" transform="translate(261,256)"/>
<path d="M0 0 C1.98 0 3.96 0 6 0 C6 0.99 6 1.98 6 3 C3.69 3.33 1.38 3.66 -1 4 C-0.67 2.68 -0.34 1.36 0 0 Z " fill="#989896" transform="translate(140,250)"/>
<path d="M0 0 C1.32 0 2.64 0 4 0 C4 0.66 4 1.32 4 2 C3.01 2.495 3.01 2.495 2 3 C1.34444881 5.52733235 1.34444881 5.52733235 1 8 C0.01 7.67 -0.98 7.34 -2 7 C-1.34 4.69 -0.68 2.38 0 0 Z " fill="#F9F7F6" transform="translate(195,161)"/>
<path d="M0 0 C3.3 0 6.6 0 10 0 C7 2 7 2 3 2 C3 2.66 3 3.32 3 4 C3.66 4.33 4.32 4.66 5 5 C4.01 5 3.02 5 2 5 C1.34 3.35 0.68 1.7 0 0 Z " fill="#F7F6F5" transform="translate(165,252)"/>
<path d="M0 0 C0.99 0 1.98 0 3 0 C3 2.97 3 5.94 3 9 C0 6 0 6 -0.1875 2.8125 C-0.125625 1.884375 -0.06375 0.95625 0 0 Z " fill="#F3F3F3" transform="translate(304,251)"/>
<path d="M0 0 C-1.8125 2 -1.8125 2 -4 4 C-4.99 4 -5.98 4 -7 4 C-7.33 2.68 -7.66 1.36 -8 0 C-4.94736336 -0.98120464 -3.05263664 -0.98120464 0 0 Z " fill="#D3D3D0" transform="translate(143,255)"/>
<path d="M0 0 C2.97 1.98 2.97 1.98 6 4 C4.35 5.32 2.7 6.64 1 8 C0.67 5.36 0.34 2.72 0 0 Z " fill="#C2C2C2" transform="translate(384,183)"/>
<path d="M0 0 C0.33 1.32 0.66 2.64 1 4 C-0.32 4.33 -1.64 4.66 -3 5 C-3.33 3.68 -3.66 2.36 -4 1 C-2 0 -2 0 0 0 Z " fill="#DDDDDB" transform="translate(159,254)"/>
<path d="M0 0 C-1.1875 1.5 -1.1875 1.5 -3 3 C-5.6875 3.1875 -5.6875 3.1875 -8 3 C-8 2.34 -8 1.68 -8 1 C-5.29120665 -0.35439668 -2.99066732 -0.06501451 0 0 Z " fill="#E8E8E6" transform="translate(177,257)"/>
<path d="M0 0 C0.66 0 1.32 0 2 0 C1.01 2.97 0.02 5.94 -1 9 C-1.66 8.01 -2.32 7.02 -3 6 C-2.34 6 -1.68 6 -1 6 C-1.0309375 4.7934375 -1.0309375 4.7934375 -1.0625 3.5625 C-1 1 -1 1 0 0 Z " fill="#BABAB8" transform="translate(197,163)"/>
</svg>
